<?xml version="1.0" standalone="no"?>
<!DOCTYPE svg PUBLIC "-//W3C//DTD SVG 20010904//EN"
 "http://www.w3.org/TR/2001/REC-SVG-20010904/DTD/svg10.dtd">
<svg version="1.0" xmlns="http://www.w3.org/2000/svg"
 width="261.000000pt" height="261.000000pt" viewBox="0 0 261.000000 261.000000"
 preserveAspectRatio="xMidYMid meet">
<metadata>
Created by potrace 1.11, written by Peter Selinger 2001-2013
</metadata>
<g transform="translate(0.000000,261.000000) scale(0.100000,-0.100000)"
fill="#000000" stroke="none">
<path d="M1346 2586 c-20 -17 -27 -30 -23 -43 5 -13 2 -12 -9 5 -21 28 -44 28
-79 1 -17 -14 -29 -18 -33 -12 -4 7 -24 -4 -48 -26 l-42 -37 54 -1 c30 -1 54
2 54 7 0 4 18 10 39 12 33 3 43 -1 61 -24 12 -16 30 -28 39 -28 9 0 65 -12
126 -27 91 -23 114 -33 140 -60 24 -26 40 -33 81 -36 29 -3 56 -1 62 5 6 6 -8
36 -39 83 -27 41 -49 76 -49 79 0 4 9 6 21 6 11 0 18 -4 15 -9 -3 -5 3 -20 14
-34 11 -14 20 -28 20 -32 0 -12 29 -35 44 -35 9 0 16 6 16 12 0 7 7 2 16 -10
17 -25 46 -29 63 -8 11 13 3 19 -63 40 -13 5 -17 12 -12 30 11 43 -69 93 -131
81 -24 -4 -69 6 -169 40 -76 25 -137 45 -138 45 -1 -1 -14 -11 -30 -24z m334
-216 c13 -8 13 -10 -2 -10 -9 0 -20 5 -23 10 -8 13 5 13 25 0z"/>
<path d="M1058 2582 c-20 -9 -46 -29 -58 -44 -13 -17 -31 -28 -45 -28 -26 0
-249 -55 -265 -65 -6 -3 -10 -15 -10 -26 0 -10 -4 -19 -10 -19 -5 0 -10 -6
-10 -12 -1 -12 -37 -32 -140 -76 -51 -22 -88 -57 -93 -90 -2 -12 -47 -64 -100
-115 -53 -52 -98 -98 -98 -103 -1 -5 -3 -20 -4 -34 -5 -37 35 -82 78 -86 34
-4 38 0 122 101 56 67 94 105 107 105 36 0 78 30 99 71 31 62 25 67 -76 57
-48 -5 -89 -7 -91 -5 -2 2 3 12 12 23 8 10 13 13 9 7 -4 -10 7 -12 44 -10 28
2 54 6 57 10 4 4 18 7 30 7 16 0 29 10 39 31 12 23 19 28 29 20 7 -6 16 -8 20
-4 4 4 11 1 16 -7 8 -13 23 -10 103 18 107 37 126 40 107 17 -7 -9 -14 -46
-16 -83 -1 -37 -3 -67 -4 -67 -5 0 -11 -48 -13 -101 -1 -34 -8 -68 -16 -78
-15 -18 -51 -22 -51 -6 0 6 -16 10 -37 8 -28 -2 -38 1 -41 13 -4 21 47 41 71
27 27 -15 40 1 34 43 -4 29 -2 36 9 32 11 -4 14 6 14 41 0 50 -8 57 -28 26
-11 -19 -15 -19 -33 -6 -32 22 -55 9 -130 -78 -40 -44 -93 -100 -119 -123 -63
-56 -84 -100 -68 -143 9 -27 8 -39 -7 -66 -10 -19 -21 -34 -26 -34 -4 0 -10
-8 -13 -17 -6 -16 -6 -16 12 0 16 15 21 15 38 2 10 -8 29 -15 42 -15 22 0 22
1 -8 28 -32 30 -33 54 -1 79 26 20 35 15 15 -9 l-19 -22 27 20 c14 10 22 20
17 22 -4 2 8 26 28 53 26 34 40 45 45 36 7 -9 8 -8 7 3 -3 22 14 54 31 59 8 2
22 6 31 8 21 6 33 -25 17 -45 -11 -13 -11 -14 2 -7 8 5 23 20 34 33 21 26 36
22 15 -5 -11 -15 -11 -16 1 -5 19 16 50 15 50 -2 0 -15 -43 -61 -80 -87 -20
-13 -21 -18 -11 -37 7 -13 9 -31 6 -41 -5 -17 -2 -18 36 -10 23 5 51 14 62 20
24 13 23 14 85 -113 26 -54 51 -98 55 -98 5 0 11 9 14 19 4 18 8 16 33 -12 20
-24 31 -51 40 -105 9 -54 17 -75 32 -83 14 -7 23 -8 30 -1 6 6 17 8 24 5 8 -3
14 -1 14 5 0 12 131 4 144 -9 6 -5 17 -9 25 -9 9 0 31 -14 50 -31 46 -42 29
-58 -33 -29 -34 15 -64 20 -111 19 -68 -2 -94 -13 -50 -22 14 -2 28 0 31 4 9
15 34 10 34 -7 0 -13 -9 -15 -44 -13 -39 4 -43 2 -35 -13 11 -21 22 -22 50 -8
12 7 19 7 19 1 0 -6 7 -8 15 -5 27 11 16 -22 -11 -35 -22 -10 -26 -9 -21 3 4
9 2 18 -3 21 -6 4 -10 1 -10 -4 0 -19 -28 -12 -44 11 -13 18 -16 19 -16 6 0
-9 5 -20 10 -23 6 -3 10 -11 10 -17 0 -6 -3 -8 -7 -5 -3 4 -11 3 -17 -2 -6 -4
-20 -11 -30 -15 -19 -7 -19 -6 -2 13 12 13 14 21 6 26 -6 4 -14 4 -17 1 -3 -3
-14 -1 -25 5 -14 8 -25 6 -43 -5 -27 -18 -61 -21 -70 -7 -3 6 -18 6 -38 0 -17
-5 -33 -9 -34 -9 -1 0 0 7 3 15 25 65 -93 -83 -124 -155 -47 -112 -54 -287
-16 -395 53 -151 179 -282 321 -335 144 -54 294 -49 428 14 83 39 187 120 179
140 -3 8 3 17 13 20 11 4 38 42 62 89 46 90 63 157 40 157 -10 1 -9 4 3 14 14
10 18 30 19 92 0 43 -2 93 -6 109 -24 97 -96 218 -170 283 l-46 41 41 65 c23
36 48 66 55 66 17 0 45 39 45 62 0 16 -4 16 -47 3 -57 -18 -53 -17 -53 -6 0 5
17 12 38 16 43 8 72 30 72 57 0 28 -28 33 -54 9 -12 -11 -27 -21 -33 -21 -15
0 -43 -34 -43 -54 0 -20 -97 -146 -113 -146 -31 1 -34 16 -15 90 11 47 27 84
43 100 26 27 33 74 14 86 -14 8 -44 -27 -65 -75 -19 -41 -32 -33 -14 9 8 18
10 44 5 67 l-7 38 -25 -29 c-19 -23 -23 -36 -19 -59 8 -41 -43 -189 -62 -182
-8 3 -20 5 -29 5 -12 0 -14 14 -9 88 8 124 9 163 2 170 -4 3 -24 -14 -46 -39
-22 -24 -40 -39 -40 -33 0 5 14 23 30 39 17 16 30 38 30 49 0 16 2 18 9 7 6
-9 11 -10 15 -2 4 6 4 16 1 21 -3 6 0 12 7 14 84 25 112 41 145 87 33 47 37
49 83 49 78 0 81 -14 25 -145 -26 -61 -26 -83 -4 -104 19 -17 20 -23 9 -36 -7
-8 -11 -18 -8 -21 3 -2 31 47 62 111 l56 116 31 -16 c17 -9 41 -14 54 -11 32
8 75 79 87 145 13 66 6 103 -23 132 -11 11 -18 27 -15 35 3 9 2 12 -5 9 -6 -4
-9 -1 -8 6 3 21 -12 49 -27 49 -15 0 -70 49 -67 60 1 4 -6 6 -17 3 -10 -3 -26
-20 -35 -39 -20 -43 -51 -49 -32 -6 6 15 16 30 22 34 6 5 3 12 -7 20 -10 7
-28 33 -40 58 -16 30 -33 48 -56 57 -32 13 -35 12 -69 -22 l-35 -35 -85 29
c-84 30 -84 30 -104 10 -14 -14 -17 -25 -11 -37 5 -9 9 -32 11 -51 1 -18 6
-41 11 -51 18 -34 10 -44 -15 -20 -19 18 -24 31 -21 58 3 19 7 37 10 40 3 3
-3 11 -14 19 -17 12 -23 11 -50 -8 -16 -13 -30 -31 -30 -41 0 -22 -23 -33 -47
-22 -16 7 -15 8 5 11 12 3 22 11 22 19 0 8 -4 12 -10 9 -20 -13 -9 14 12 29
17 12 19 19 11 27 -9 9 -26 9 -64 1 -56 -11 -78 -6 -118 26 l-24 20 31 6 c17
4 40 3 51 -3 45 -25 111 -4 151 46 l21 27 -23 9 c-30 12 -144 11 -184 -1 -29
-9 -66 0 -53 12 3 4 32 11 65 18 43 8 71 21 101 47 23 20 42 41 43 48 0 6 -14
16 -31 22 -38 13 -35 14 -81 -7z m534 -282 c10 -17 13 -32 7 -35 -14 -9 -11
-25 5 -19 26 10 12 -36 -19 -61 -30 -24 -20 -34 16 -15 10 6 19 7 19 2 0 -5
-11 -15 -25 -22 -30 -16 -33 -34 -4 -25 21 7 21 7 3 -24 -10 -17 -27 -34 -39
-37 -32 -10 -48 -26 -34 -34 20 -13 -1 -30 -36 -30 -18 0 -40 -7 -49 -15 -20
-20 -28 -19 -48 10 -17 22 -15 55 2 55 5 0 14 17 20 38 8 22 35 59 70 93 45
43 60 66 66 95 11 65 20 69 46 24z m-589 -17 c60 -91 119 -132 201 -140 l52
-5 -4 -62 c-2 -33 -9 -66 -14 -72 -9 -12 -89 -7 -98 6 -3 4 -34 21 -70 38 -36
17 -71 40 -78 52 -12 20 -11 20 7 11 30 -17 46 -14 31 4 -7 8 -21 15 -31 15
-13 0 -19 7 -19 21 0 18 2 19 15 9 22 -18 18 -4 -7 30 -21 29 -36 130 -18 130
4 0 19 -17 33 -37z m427 -123 c0 -5 -7 -10 -16 -10 -8 0 -12 5 -9 10 3 6 10
10 16 10 5 0 9 -4 9 -10z m-860 -15 c-7 -8 -18 -15 -24 -15 -6 0 -2 7 8 15 25
19 32 19 16 0z m1218 -3 c2 -7 -8 -16 -21 -21 -14 -6 -28 -15 -32 -20 -7 -12
-60 -13 -89 -2 -18 7 -18 8 4 24 13 9 26 13 30 8 3 -4 20 -8 37 -8 23 0 34 6
39 19 6 20 25 20 32 0z m-420 -40 c2 -8 -3 -10 -14 -5 -13 5 -16 3 -11 -9 7
-19 -29 -56 -41 -42 -5 5 -14 22 -21 38 -11 26 -10 28 3 16 13 -10 20 -10 38
3 25 17 40 17 46 -1z m92 -248 c0 -14 -55 -38 -69 -30 -5 4 -12 2 -15 -2 -8
-13 -113 -14 -121 -2 -3 5 -17 10 -31 10 -41 0 -40 28 1 70 30 31 42 37 52 28
7 -6 13 -16 12 -22 -3 -24 2 -37 11 -31 6 3 10 18 10 32 0 20 4 24 20 20 22
-6 45 16 35 35 -3 7 16 -11 44 -41 28 -30 51 -60 51 -67z m-303 -28 c75 -56
82 -64 83 -96 0 -26 3 -31 10 -20 5 8 10 10 10 5 0 -6 -4 -15 -10 -21 -10 -10
-11 -32 -4 -152 6 -88 -2 -112 -36 -112 -25 0 -73 142 -64 188 4 22 1 40 -10
57 -25 39 -38 21 -35 -49 4 -65 -11 -95 -17 -37 -5 41 -41 84 -63 76 -9 -3
-13 -3 -9 0 4 4 -4 36 -18 71 -32 84 -31 107 6 137 39 33 57 28 157 -47z m153
-516 c0 -5 -4 -10 -9 -10 -6 0 -13 5 -16 10 -3 6 1 10 9 10 9 0 16 -4 16 -10z
m193 -38 c-10 -10 -20 -14 -22 -9 -2 5 3 13 10 18 24 15 30 10 12 -9z m-533
-222 c-20 -13 -30 -12 -30 1 0 5 4 8 9 4 5 -3 13 0 16 6 4 5 10 8 13 4 4 -3 0
-10 -8 -15z m390 -92 c0 -12 -6 -9 -26 13 -19 22 -19 22 4 8 12 -8 22 -17 22
-21z m-46 -76 c2 -18 -1 -32 -5 -32 -5 0 -9 8 -9 18 0 9 -3 28 -6 42 -5 18 -4
22 5 15 6 -6 13 -25 15 -43z m66 -84 c0 -19 -18 -43 -25 -36 -9 9 4 48 16 48
5 0 9 -6 9 -12z m396 -4 c-4 -9 -1 -24 6 -32 11 -13 11 -14 -2 -7 -8 5 -23 8
-34 6 -10 -1 -16 1 -14 6 3 4 8 16 11 26 4 9 14 17 23 17 11 0 14 -5 10 -16z
m-284 -72 c-4 -24 15 -39 31 -23 16 16 37 14 37 -4 0 -8 9 -20 20 -27 11 -7
20 -16 20 -20 0 -12 -44 -5 -62 10 -10 8 -27 12 -40 9 -22 -6 -23 -3 -24 39 0
27 4 43 10 41 6 -2 10 -13 8 -25z m168 9 c0 -6 -4 -13 -10 -16 -5 -3 -10 1
-10 9 0 9 5 16 10 16 6 0 10 -4 10 -9z m135 -21 c-3 -5 -11 -10 -16 -10 -6 0
-7 5 -4 10 3 6 11 10 16 10 6 0 7 -4 4 -10z m-82 -17 c-7 -19 -22 -33 -37 -33
-5 0 1 11 14 25 28 30 32 31 23 8z m-58 -86 c0 -57 -2 -64 -14 -52 -12 11 -12
21 -1 60 11 40 11 48 -1 57 -12 8 -12 9 1 5 11 -3 15 -20 15 -70z m-170 -17
c-3 -5 -11 -10 -16 -10 -6 0 -7 5 -4 10 3 6 11 10 16 10 6 0 7 -4 4 -10z m-55
-5 c0 -3 -8 -17 -17 -31 -14 -22 -14 -27 -2 -34 15 -10 12 -10 -59 -12 -28 -1
-33 -4 -29 -19 4 -15 0 -19 -19 -19 -13 0 -24 3 -24 6 0 10 45 43 59 44 19 0
51 29 51 46 0 7 6 15 13 17 17 7 27 8 27 2z m-320 -70 c0 -17 -36 -38 -53 -32
-7 3 0 10 16 16 15 6 27 15 27 21 0 5 2 10 5 10 3 0 5 -7 5 -15z"/>
<path d="M1535 2080 c-3 -5 1 -10 9 -10 9 0 16 5 16 10 0 6 -4 10 -9 10 -6 0
-13 -4 -16 -10z"/>
<path d="M1041 1751 c-16 -11 -9 -36 24 -80 22 -31 24 -32 23 -10 -1 36 -18
99 -26 99 -4 0 -13 -4 -21 -9z"/>
<path d="M1908 2374 c-6 -13 -17 -24 -24 -24 -18 0 -27 -17 -17 -32 4 -7 6
-20 5 -29 -2 -8 26 -38 65 -70 108 -87 153 -132 158 -157 2 -13 7 -32 10 -43
10 -29 83 -79 117 -79 26 0 29 3 22 23 -13 43 -47 102 -85 148 -43 50 -46 59
-24 59 8 0 29 -20 47 -45 26 -35 43 -47 85 -60 67 -20 73 -19 73 8 0 39 -56
96 -101 103 -31 5 -46 15 -66 43 -15 20 -60 68 -101 108 -68 65 -79 72 -114
71 -32 0 -42 -5 -50 -24z m353 -251 c13 -16 12 -17 -3 -4 -10 7 -18 15 -18 17
0 8 8 3 21 -13z m-101 -98 c14 -19 14 -19 -2 -6 -10 7 -18 18 -18 24 0 6 1 8
3 6 1 -2 9 -13 17 -24z"/>
<path d="M2230 2041 c0 -6 4 -11 9 -11 5 0 15 -16 21 -35 6 -19 17 -35 24 -35
7 0 22 -13 34 -29 18 -24 19 -30 7 -35 -9 -3 -14 -9 -14 -13 1 -4 -1 -16 -6
-26 -5 -13 6 -61 35 -146 35 -104 40 -132 31 -149 -18 -33 -13 -69 14 -112 37
-59 42 -56 90 50 36 80 34 77 45 60 6 -9 4 -20 -4 -30 -8 -8 -17 -25 -20 -37
-4 -13 -12 -23 -17 -23 -6 0 -7 -4 -4 -10 3 -5 -1 -23 -10 -40 -8 -16 -12 -30
-7 -30 8 0 32 -42 32 -55 0 -3 -7 -5 -15 -5 -9 0 -12 -6 -8 -17 4 -9 2 -14 -3
-10 -23 14 -37 -16 -50 -104 -21 -143 -36 -191 -67 -219 -15 -14 -31 -41 -36
-60 -7 -34 0 -94 13 -108 14 -13 76 74 96 135 22 63 43 92 54 74 4 -5 -3 -35
-15 -65 -19 -53 -20 -60 -6 -114 9 -35 19 -57 28 -57 8 0 25 22 38 49 23 46
24 50 9 96 -8 26 -12 54 -8 61 4 8 24 70 45 137 33 113 35 125 21 141 -9 10
-16 23 -16 29 0 7 -7 12 -15 12 -12 0 -13 4 -5 19 5 11 10 38 10 60 0 22 5 52
11 67 12 33 -6 123 -26 130 -16 6 -34 64 -66 203 -18 79 -28 105 -41 109 -10
2 -18 9 -18 14 0 6 -7 8 -15 4 -11 -4 -15 1 -15 19 0 31 -66 67 -81 44 -5 -8
-9 -9 -9 -3 0 5 5 15 11 21 15 15 5 29 -23 36 -13 2 -31 8 -40 12 -11 4 -18 3
-18 -4z m132 -113 c-8 -8 -9 -4 -5 13 4 13 8 18 11 10 2 -7 -1 -18 -6 -23z
m45 -420 c-3 -7 -5 -2 -5 12 0 14 2 19 5 13 2 -7 2 -19 0 -25z m-37 -569 c-7
-11 -14 -18 -17 -15 -3 3 0 12 7 21 18 21 23 19 10 -6z m122 -71 c-6 -6 -7 0
-4 19 5 21 7 23 10 9 2 -10 0 -22 -6 -28z"/>
<path d="M196 1873 c-14 -48 -17 -93 -7 -110 7 -14 7 -23 0 -30 -8 -8 -7 -13
0 -18 6 -3 14 2 18 12 3 10 14 29 22 42 9 14 14 35 13 48 -2 13 2 23 8 23 6 0
10 10 8 23 -4 29 -54 37 -62 10z"/>
<path d="M460 1830 c-9 -6 -10 -10 -3 -10 6 0 15 5 18 10 8 12 4 12 -15 0z"/>
<path d="M111 1792 c-29 -23 -43 -86 -30 -135 8 -32 7 -48 -10 -90 -39 -102
-60 -162 -66 -187 -6 -26 19 -100 34 -100 10 0 3 -94 -11 -142 -14 -47 2 -107
36 -140 15 -15 30 -49 40 -93 37 -152 57 -205 77 -205 10 0 19 -4 19 -10 0 -5
6 -10 13 -10 8 0 13 -10 13 -22 -1 -15 10 -28 37 -43 20 -12 34 -24 31 -28 -4
-3 6 -11 22 -18 16 -6 37 -15 46 -20 10 -5 19 -5 23 1 3 6 2 10 -3 10 -6 0
-17 18 -26 41 -9 22 -20 38 -25 35 -5 -3 -21 10 -35 29 -22 28 -24 35 -11 35
9 0 15 6 12 13 -2 6 3 17 11 23 16 12 14 18 -69 227 -13 35 -16 54 -9 67 17
32 11 71 -18 116 -15 24 -31 44 -35 44 -4 0 -17 -21 -28 -47 -12 -27 -29 -65
-38 -86 l-16 -39 -20 22 c-15 16 -15 20 -3 15 12 -5 19 3 28 29 6 20 16 36 21
36 6 0 8 4 5 9 -3 4 0 22 6 38 10 26 8 35 -11 62 -19 27 -20 31 -6 31 12 0 15
5 11 16 -4 11 -2 15 8 11 24 -9 33 12 56 128 12 61 25 121 28 134 3 14 22 41
44 61 34 33 38 42 38 87 0 27 -6 57 -13 66 -11 16 -16 14 -48 -25 -19 -24 -43
-65 -53 -93 -20 -54 -33 -75 -47 -75 -15 0 -10 28 12 75 19 39 19 50 9 99 -6
31 -15 58 -20 61 -4 3 -18 -3 -29 -13z m6 -94 c-3 -8 -6 -5 -6 6 -1 11 2 17 5
13 3 -3 4 -12 1 -19z m133 -47 c-6 -12 -15 -21 -21 -21 -5 0 -2 11 7 25 20 30
31 26 14 -4z m-53 -583 c-3 -7 -5 -2 -5 12 0 14 2 19 5 13 2 -7 2 -19 0 -25z"/>
<path d="M1519 1748 c-6 -17 -7 -88 0 -88 12 0 32 26 26 32 -3 3 1 11 9 17 19
16 10 41 -15 41 -10 0 -19 -1 -20 -2z"/>
<path d="M369 1633 c10 -38 53 -53 80 -29 20 19 20 19 -3 37 -13 11 -38 19
-54 19 -28 0 -30 -2 -23 -27z"/>
<path d="M1942 1630 c-12 -12 -22 -22 -22 -24 0 -8 45 8 52 18 21 31 1 34 -30
6z"/>
<path d="M626 1633 c-4 -4 -21 -8 -39 -9 -18 -1 -50 -10 -72 -19 -32 -13 -34
-15 -11 -12 21 4 45 -7 100 -43 39 -27 75 -45 81 -41 28 23 68 18 104 -11 20
-17 -4 9 -54 56 -92 88 -97 91 -109 79z"/>
<path d="M836 1624 c-3 -9 -2 -23 3 -31 4 -9 6 -24 4 -33 -5 -20 23 -80 37
-80 5 0 25 -31 45 -69 38 -72 62 -89 96 -68 30 19 27 38 -13 103 -21 34 -38
72 -38 86 0 27 -44 86 -53 72 -3 -5 -8 -31 -12 -57 -4 -27 -11 -45 -16 -40 -4
4 -3 27 3 51 9 37 8 45 -7 62 -22 24 -41 26 -49 4z m38 -19 c3 -8 1 -15 -3
-15 -5 0 -11 7 -15 15 -3 8 -1 15 3 15 5 0 11 -7 15 -15z"/>
<path d="M1966 1565 c-3 -8 -1 -15 4 -15 13 0 22 18 11 24 -5 3 -11 -1 -15 -9z"/>
<path d="M2400 857 c0 -13 -9 -32 -20 -42 -15 -14 -17 -21 -9 -32 9 -10 8 -18
-3 -31 -19 -22 -13 -48 13 -55 28 -8 42 26 43 107 1 47 -3 71 -11 73 -8 3 -13
-5 -13 -20z"/>
<path d="M2324 701 c3 -4 -5 -6 -18 -4 -17 4 -29 -3 -45 -23 -12 -15 -51 -60
-87 -100 -53 -58 -72 -73 -103 -78 -20 -3 -46 -16 -58 -28 -20 -23 -53 -80
-53 -94 0 -4 45 -4 100 0 l101 6 -12 -21 c-7 -13 -14 -17 -18 -11 -3 6 -26 9
-51 7 -25 -2 -57 -4 -72 -4 -19 -1 -32 -10 -48 -38 -14 -25 -24 -33 -29 -25
-4 7 -15 10 -24 6 -10 -3 -17 -1 -17 5 0 15 -36 14 -68 -3 -15 -7 -71 -28
-125 -46 -90 -31 -100 -32 -136 -20 -22 7 -50 10 -63 7 -35 -9 -92 -50 -96
-69 -4 -23 112 -35 180 -19 64 14 81 14 76 -1 -3 -7 -34 -20 -70 -28 -49 -11
-75 -24 -108 -53 -51 -47 -44 -61 32 -59 47 1 57 5 85 35 28 31 42 37 150 60
146 31 174 42 180 67 3 11 9 20 14 20 5 0 9 9 9 21 0 11 4 17 10 14 5 -3 29 5
53 19 24 15 52 26 63 26 33 0 85 39 102 78 20 42 35 59 150 161 78 69 83 76
76 105 -6 30 -59 96 -77 96 -4 0 -6 -4 -3 -9z m-264 -261 c-8 -5 -17 -7 -19
-4 -3 3 1 9 9 14 8 5 17 7 19 4 3 -3 -1 -9 -9 -14z m-517 -247 c-7 -2 -19 -2
-25 0 -7 3 -2 5 12 5 14 0 19 -2 13 -5z m22 -133 c-3 -5 -14 -10 -23 -10 -15
0 -15 2 -2 10 20 13 33 13 25 0z"/>
<path d="M374 647 c-8 -21 24 -87 72 -147 43 -55 54 -80 35 -80 -5 0 -27 22
-48 49 -32 42 -47 52 -96 66 -33 9 -61 14 -64 11 -10 -10 7 -55 33 -85 17 -20
42 -35 71 -42 36 -10 51 -21 83 -64 43 -58 157 -165 176 -165 7 0 16 5 19 10
5 8 11 8 19 1 9 -7 16 -7 24 1 9 9 12 9 12 0 0 -6 14 -19 31 -27 16 -9 47 -31
67 -49 45 -41 106 -61 142 -48 14 5 34 6 45 2 11 -5 71 -22 134 -40 95 -27
117 -30 136 -20 12 7 42 14 66 16 24 2 55 5 69 6 14 2 38 18 54 35 15 18 32
30 37 27 5 -3 9 2 9 10 0 17 -15 22 -24 7 -3 -5 -22 -5 -42 -1 -25 6 -37 5
-40 -5 -3 -7 -22 -12 -44 -12 -28 0 -37 3 -33 13 3 8 0 14 -6 14 -6 0 -11 9
-11 20 0 12 -8 21 -22 24 -13 3 -75 14 -138 25 -99 18 -118 25 -145 51 -28 27
-38 30 -93 30 -37 0 -62 -4 -62 -11 0 -5 25 -44 55 -85 54 -72 54 -74 29 -74
-14 0 -23 4 -20 9 3 5 -3 20 -14 34 -11 14 -20 28 -20 31 0 3 -11 17 -25 32
-18 19 -36 28 -58 28 -25 1 -31 5 -29 18 2 11 -3 18 -14 18 -14 0 -14 3 -4 16
11 12 11 17 -1 28 -8 7 -60 52 -116 101 -83 71 -103 93 -103 115 0 36 -32 76
-81 100 -45 23 -58 25 -65 7z m97 -84 c13 -16 12 -17 -3 -4 -17 13 -22 21 -14
21 2 0 10 -8 17 -17z m496 -339 c-7 -7 -37 7 -37 17 0 6 9 5 21 -1 11 -7 19
-14 16 -16z m-193 0 c9 -3 16 -12 16 -20 0 -18 -44 -18 -59 -1 -18 23 7 35 43
21z"/>
<path d="M735 210 c3 -5 15 -10 26 -10 11 0 17 5 14 10 -3 6 -15 10 -26 10
-11 0 -17 -4 -14 -10z"/>
</g>
</svg>
